<svg width="32" height="27" viewBox="0 0 32 27" fill="none" xmlns="http://www.w3.org/2000/svg">
<path d="M21.2571 18.5801L15.9238 13.2467M15.9238 13.2467L10.5904 18.5801M15.9238 13.2467V25.2467M27.1104 21.7667C28.4109 21.0578 29.4382 19.9359 30.0303 18.5782C30.6223 17.2205 30.7454 15.7044 30.3801 14.269C30.0147 12.8336 29.1818 11.5607 28.0127 10.6513C26.8436 9.7419 25.4049 9.2477 23.9238 9.24672H22.2438C21.8402 7.68571 21.088 6.2365 20.0437 5.00805C18.9994 3.77959 17.6902 2.80386 16.2146 2.1542C14.7389 1.50454 13.1352 1.19787 11.5239 1.25723C9.91269 1.3166 8.33586 1.74046 6.91201 2.49694C5.48816 3.25343 4.25432 4.32286 3.30327 5.62483C2.35222 6.9268 1.7087 8.42744 1.42108 10.0139C1.13347 11.6004 1.20925 13.2314 1.64273 14.7844C2.0762 16.3374 2.8561 17.7719 3.92378 18.9801" stroke="#115BFE" stroke-width="2.5" stroke-linecap="round" stroke-linejoin="round"/>
</svg>
